<svg width="8" height="12" viewBox="0 0 8 12" fill="none" xmlns="http://www.w3.org/2000/svg">
<path fill-rule="evenodd" clip-rule="evenodd" d="M3.97578 11.3994C3.64743 11.3994 3.38125 11.1308 3.38125 10.7994L3.38125 1.19943C3.38125 0.868064 3.64743 0.599435 3.97578 0.599435C4.30413 0.599435 4.57031 0.868064 4.57031 1.19943L4.57031 10.7994C4.57031 11.1308 4.30413 11.3994 3.97578 11.3994Z" fill="#777777"/>
<path fill-rule="evenodd" clip-rule="evenodd" d="M7.68523 4.6034C7.46435 4.8486 7.08834 4.86667 6.84539 4.64376L3.9754 2.01068L1.10541 4.64376C0.862447 4.86667 0.486438 4.8486 0.265565 4.6034C0.0446935 4.35821 0.0625993 3.97874 0.305558 3.75584L3.57547 0.755843C3.80224 0.547796 4.14855 0.547796 4.37532 0.755843L7.64523 3.75584C7.88819 3.97874 7.9061 4.35821 7.68523 4.6034Z" fill="#777777"/>
</svg>
