<svg width="8" height="12" viewBox="0 0 8 12" fill="none" xmlns="http://www.w3.org/2000/svg">
<path fill-rule="evenodd" clip-rule="evenodd" d="M3.97734 0.599609C4.30569 0.599609 4.57187 0.868238 4.57187 1.19961L4.57187 10.7996C4.57187 11.131 4.30569 11.3996 3.97734 11.3996C3.64899 11.3996 3.38281 11.131 3.38281 10.7996L3.38281 1.19961C3.38281 0.868238 3.64899 0.599609 3.97734 0.599609Z" fill="#777777"/>
<path fill-rule="evenodd" clip-rule="evenodd" d="M0.267899 7.39562C0.488771 7.15042 0.86478 7.13235 1.10774 7.35526L3.97773 9.98834L6.84772 7.35526C7.09068 7.13235 7.46669 7.15042 7.68756 7.39562C7.90843 7.64081 7.89053 8.02028 7.64757 8.24318L4.37765 11.2432C4.15089 11.4512 3.80457 11.4512 3.57781 11.2432L0.307891 8.24318C0.0649321 8.02028 0.0470269 7.64081 0.267899 7.39562Z" fill="#777777"/>
</svg>
