<svg width="12" height="10" viewBox="0 0 12 10" fill="none" xmlns="http://www.w3.org/2000/svg">
<g clip-path="url(#clip0_3126_8037)">
<path d="M6.00011 9.19981C3.68175 9.19981 1.53487 7.96889 0.256229 5.90693C-0.0854096 5.35572 -0.0854096 4.64389 0.256229 4.09268C1.53444 2.03072 3.68175 0.799805 6.00011 0.799805C8.31846 0.799805 10.4653 2.03072 11.744 4.09268C12.0856 4.64389 12.0856 5.35572 11.744 5.90693C10.4658 7.96889 8.31846 9.19981 6.00011 9.19981ZM6.00011 1.61267C3.97813 1.61267 2.0989 2.69648 0.973452 4.512C0.795452 4.79902 0.795452 5.20017 0.973452 5.48761C2.0989 7.30313 3.97813 8.38694 6.00011 8.38694C8.02209 8.38694 9.90131 7.30313 11.0268 5.48761C11.2048 5.20059 11.2048 4.79944 11.0268 4.512C9.90131 2.69648 8.02209 1.61267 6.00011 1.61267Z" fill="#777777"/>
<path d="M5.99807 7.57433C4.53664 7.57433 3.34766 6.4195 3.34766 5.00006C3.34766 3.58061 4.53664 2.42578 5.99807 2.42578C7.4595 2.42578 8.64849 3.58061 8.64849 5.00006C8.64849 6.4195 7.4595 7.57433 5.99807 7.57433ZM5.99807 3.23907C4.99797 3.23907 4.18456 4.0291 4.18456 5.00048C4.18456 5.97186 4.99797 6.76189 5.99807 6.76189C6.99818 6.76189 7.81159 5.97186 7.81159 5.00048C7.81159 4.0291 6.99818 3.23907 5.99807 3.23907Z" fill="#777777"/>
</g>
<defs>
<clipPath id="clip0_3126_8037">
<rect width="12" height="8.4" fill="white" transform="translate(0 0.799805)"/>
</clipPath>
</defs>
</svg>
