<svg width="12" height="12" viewBox="0 0 12 12" fill="none" xmlns="http://www.w3.org/2000/svg">
<path d="M3.76633 6.4065C3.53523 6.4065 3.34766 6.22445 3.34766 6.00015C3.34766 4.58173 4.53665 3.42773 5.99808 3.42773C6.22917 3.42773 6.41675 3.60979 6.41675 3.83408C6.41675 4.05838 6.22917 4.24043 5.99808 4.24043C4.99797 4.24043 4.18456 5.0299 4.18456 6.00057C4.18456 6.22487 3.99699 6.40692 3.76589 6.40692L3.76633 6.4065Z" fill="#777777"/>
<path d="M1.83473 8.55311C1.73246 8.55311 1.62975 8.51678 1.54923 8.44371C1.03525 7.9778 0.600479 7.46078 0.256229 6.90617C-0.0854096 6.35536 -0.0854096 5.64404 0.256229 5.09323C1.53444 3.03276 3.68175 1.80273 6.00011 1.80273C6.60722 1.80273 7.21956 1.89144 7.81971 2.06589C8.04123 2.13052 8.16658 2.35692 8.10042 2.5715C8.03384 2.78608 7.801 2.90858 7.57948 2.84395C7.05766 2.69189 6.52628 2.61501 6.00054 2.61501C3.97857 2.61501 2.09934 3.69804 0.973887 5.51225C0.795887 5.79906 0.795887 6.19992 0.973887 6.48715C1.2781 6.97713 1.66369 7.43586 2.1211 7.85023C2.28996 8.00314 2.2991 8.26039 2.14155 8.42428C2.0593 8.51002 1.94745 8.55311 1.8356 8.55311H1.83473Z" fill="#777777"/>
<path d="M6.00201 10.1962C4.8635 10.1962 3.73283 9.89164 2.73229 9.31464C2.5334 9.20017 2.46811 8.95095 2.58606 8.75792C2.704 8.56488 2.96077 8.50152 3.15966 8.61599C4.04357 9.12541 5.00016 9.38349 6.00244 9.38349C8.02442 9.38349 9.90365 8.30046 11.0291 6.48625C11.2071 6.19944 11.2071 5.79858 11.0291 5.51135C10.4786 4.62431 9.72347 3.88765 8.84479 3.38161C8.6459 3.26714 8.58062 3.01792 8.69856 2.82489C8.8165 2.63185 9.07327 2.56849 9.27216 2.68296C10.2692 3.25743 11.1244 4.0904 11.7459 5.09191C12.0875 5.64272 12.0875 6.35404 11.7459 6.90485C10.4677 8.96532 8.32036 10.1953 6.00201 10.1953V10.1962Z" fill="#777777"/>
<path d="M6.00064 8.57233C5.29256 8.57233 4.62712 8.30453 4.12663 7.81877C3.963 7.66037 3.963 7.40313 4.12663 7.24431C4.28984 7.08549 4.55488 7.08549 4.71852 7.24431C5.06103 7.57674 5.51626 7.75964 6.00064 7.75964C7.00075 7.75964 7.81415 6.97017 7.81415 5.99949C7.81415 5.52936 7.62527 5.08753 7.2832 4.7551C7.11956 4.5967 7.11956 4.33946 7.2832 4.18064C7.4464 4.02182 7.71145 4.02182 7.87508 4.18064C8.37557 4.6664 8.6515 5.31225 8.6515 5.99949C8.6515 7.41791 7.46251 8.57191 6.00108 8.57191L6.00064 8.57233Z" fill="#777777"/>
<path d="M6.00291 8.57236C5.29483 8.57236 4.6294 8.30455 4.12891 7.81879L4.72079 7.24433C5.0633 7.57676 5.51853 7.75966 6.00291 7.75966C7.00302 7.75966 7.81643 6.97019 7.81643 5.99952C7.81643 5.52939 7.62755 5.08756 7.28547 4.75513L7.87736 4.18066C8.37785 4.66642 8.65377 5.31227 8.65377 5.99952C8.65377 7.41794 7.46478 8.57193 6.00335 8.57193L6.00291 8.57236Z" fill="#777777"/>
<path d="M0.977264 11.2797C0.870203 11.2797 0.763142 11.24 0.681323 11.1606C0.517684 11.0022 0.517684 10.745 0.681323 10.5861L10.7246 0.838843C10.8878 0.680021 11.1529 0.680021 11.3165 0.838843C11.4801 0.997243 11.4801 1.25449 11.3165 1.41331L1.27321 11.1606C1.19139 11.24 1.08433 11.2797 0.977264 11.2797Z" fill="#777777"/>
</svg>
